<?xml version="1.0" encoding="utf-8"?>
<!-- Generator: Adobe Illustrator 24.2.0, SVG Export Plug-In . SVG Version: 6.00 Build 0)  -->
<svg version="1.1" id="Layer_1" xmlns="http://www.w3.org/2000/svg" xmlns:xlink="http://www.w3.org/1999/xlink" x="0px" y="0px"
	 viewBox="0 0 195.5 34.6" style="enable-background:new 0 0 195.5 34.6;" xml:space="preserve">
<style type="text/css">
	.st0{stroke:#000000;stroke-width:0.25;stroke-miterlimit:10;}
	.st1{fill:#9E9C94;stroke:#9E9C94;stroke-width:0.5;stroke-miterlimit:10;}
	.st2{fill:#9E9C94;}
	.st3{fill:#6B5B95;}
</style>
<path class="st0" d="M60.1,13.4v6c0,4.9-0.5,6.2-1.7,7.4c-1,0.8-2.2,1.3-3.5,1.3c0-0.1-0.3-1-0.3-1.2c0.9-0.1,1.7-0.4,2.4-1
	c0.9-0.8,1.3-2.2,1.3-6.3v-6.1c0-3.2,0-5.7-0.1-6.4c0.3,0,0.7,0,0.9,0c0.5,0,0.8,0,1,0C60.2,7.7,60.1,10.4,60.1,13.4z"/>
<path class="st0" d="M72.8,23.8c-0.3,0-0.5,0-0.8,0c0-0.2-0.1-1-0.1-1.6c-0.9,1.2-2.4,1.8-3.8,1.8c-1.6,0-3.8-0.5-3.8-4.4v-1.8
	c0-2.7,0-5.5,0-6.2c0.6,0,1.2,0,1.8-0.1c0,0.7,0,3.5,0,6.3v1.2c0,2,0.5,3.6,2.8,3.6c1.3-0.1,2.5-0.7,3.2-1.8v-3c0-2.7,0-5.5,0-6.1
	c0.5,0,1.1,0,1.6-0.1c0,0.7-0.1,3.3-0.1,6.1v1.3c0,1.6,0,3.2,0.1,4.7L72.8,23.8z"/>
<path class="st0" d="M78.1,18.9v-7.5c0-3,0-5.7,0-6.2c0.6,0,1.2,0,1.8-0.1c0,0.8-0.1,3.2-0.1,6.2v8c0,2.2,0,4.1,0.1,4.5
	c-0.2,0-0.5,0-0.8,0c-0.5,0-0.7,0-0.9,0C78,23.2,78.1,21.7,78.1,18.9z"/>
<path class="st0" d="M86.8,7.6c0,0.6-0.5,1.1-1.1,1.1c-0.6,0-1.1-0.5-1.1-1.1c0-0.6,0.5-1.1,1.1-1.1c0,0,0,0,0.1,0
	c0.6,0,1.1,0.4,1.1,1C86.8,7.5,86.8,7.5,86.8,7.6z M84.8,18.9v-4.1c0-1.3,0-2.6,0-3.1c0.5,0,1.4-0.1,1.8-0.1c0,0.6,0,3,0,3.6v4.1
	c0,2.2,0,4.1,0,4.5c-0.2,0-0.5,0-0.8,0c-0.5,0-0.7,0-0.9,0C84.8,23.2,84.9,21.7,84.8,18.9L84.8,18.9z"/>
<path class="st0" d="M110.3,23.3c0.1-0.6,0.2-1.2,0.2-1.9c1.1,0.8,2.5,1.3,3.8,1.2c2.6,0,3.8-1.2,3.8-3c0-1.4-0.6-2.5-2.8-3.6
	l-1.4-0.7c-2.4-1.2-3.1-2.6-3.1-4.3c0-2.3,1.7-4.4,5.1-4.4c1.2,0,2.4,0.1,3.5,0.5c-0.1,0.6-0.2,1.2-0.2,1.8c-1.1-0.7-2.3-1-3.5-0.9
	c-1.9,0-3.2,1.1-3.2,2.7c0,1,0.2,2,2.5,3.1l1.4,0.7c2.8,1.5,3.6,3,3.6,4.7c0,3.2-2.5,4.9-5.8,4.9C112.9,24.1,111.5,23.9,110.3,23.3z
	"/>
<path class="st0" d="M122.4,11.7c0.4,0,0.8,0,1.2-0.1c0.8,3,2.5,8.9,2.8,10.2c0.4-1.3,2.6-8,3.2-10.1c0.2,0,0.4,0,0.6,0
	c0.3,0,0.7,0,1-0.1c0.5,1.9,2.7,9,3.1,10.1c0.6-1.9,2.4-7.9,3-10.1c0.2,0,0.4,0,0.6,0c0.5,0,0.8,0,1.1,0c-0.9,2.5-3.2,9.6-4,12.1
	c-0.2,0-0.6,0-0.7,0c-0.3,0-0.7,0-1,0.1c-0.6-2.1-2.6-8.4-3-9.9c-0.4,1.3-2.5,7.8-3.2,9.8c-0.2,0-0.7,0-0.8,0c-0.3,0-0.7,0-1,0
	c-1.2-3.8-2.8-9.5-3.8-12.1C121.8,11.7,122.2,11.7,122.4,11.7z"/>
<path class="st0" d="M161,24.1c0-0.2-0.1-1.1-0.1-1.6c-0.9,1.2-2.3,1.8-3.8,1.8c-1.9,0.2-3.5-1.2-3.7-3.1c0-0.1,0-0.2,0-0.4
	c0-2.9,2.6-4,7.5-4.4v-0.2c0-1.5-0.6-3.2-3.1-3.2c-1.2,0-2.3,0.4-3.3,1c0.1-0.6,0.1-1.1,0.1-1.7c1.1-0.5,2.4-0.7,3.6-0.7
	c3.3,0,4.4,2.1,4.4,4.6v4.1c-0.1,1.2,0,2.4,0.2,3.6C162.1,24,161.5,24,161,24.1z M160.8,17.6c-3.3,0.3-5.8,0.9-5.8,3
	c-0.1,1.2,0.9,2.3,2.1,2.3c0.1,0,0.2,0,0.3,0c1.3,0.1,2.6-0.6,3.2-1.9c0.1-0.2,0.2-0.5,0.2-0.8V17.6z"/>
<path class="st0" d="M166.3,17.8v-2.2c0-1.7,0-3.2-0.1-3.8c0.6,0,1.2,0,1.8-0.1v1.7c1-1.2,2.5-1.8,4.1-1.8c1.6,0,3.8,0.7,3.8,4.5
	v1.6c0,2.7,0,5.4,0.1,6.2c-0.3,0-0.6,0-0.9,0c-0.3,0-0.6,0-0.9,0c0.1-0.7,0.1-3.4,0.1-6.2v-1.4c0-1.9-0.8-3.4-2.9-3.4
	c-1.3,0.1-2.5,0.8-3.4,1.8v2.4c0,2.7,0,6.2,0.1,6.8c-0.3,0-0.6,0-0.8,0c-0.3,0-0.6,0-0.9,0C166.3,23.3,166.3,20.6,166.3,17.8z"/>
<path class="st0" d="M183.2,23.7c-1.4-3.4-3.9-9.5-5-11.8c0.3,0,0.7,0,0.9,0c0.4,0,0.8,0,1.1,0c0.8,1.9,2.8,7.1,3.8,9.9
	c0.1-0.2,0.1-0.4,0.2-0.5c1.3-3,2.6-6.6,3.6-9.4c0.2,0,0.4,0,0.8,0s0.6,0,1,0c-0.9,2.3-2.5,6.3-3.9,9.5c-1.8,4.1-3.1,7.4-3.5,8.3
	c-0.5,0-1.4,0.1-2,0.2C181.3,27.9,182.3,25.8,183.2,23.7z"/>
<path class="st0" d="M90.8,15.2c0-0.9,0.3-1.8,0.8-2.5c1.2-1.5,2.7-1.5,4.5-1.4c2.5,0.1,3.8,1.7,3.8,3.5c0,2.9-2.6,4-7.5,4.4v0.2
	c0,1.5,0.6,3.2,3.1,3.2c1.2,0,2.3-0.4,3.3-1c0,0.6,0,1.1,0,1.7c-1.1,0.5-2.4,0.7-3.6,0.7c-3.3,0-4.4-2.1-4.4-4.6v-2.2
	C90.9,17.2,90.8,16.7,90.8,15.2z M92.4,18c3.3-0.3,5.8-0.9,5.8-3c0.1-1.3-0.9-2.3-2.2-2.4c-0.1,0-0.1,0-0.2,0
	c-1.8,0-2.7,0.5-3.3,1.9c-0.1,0.2-0.1,0.5-0.2,0.8L92.4,18z"/>
<path class="st0" d="M141.7,15.3c0-0.9,0.3-1.7,0.8-2.5c1.2-1.5,2.7-1.5,4.5-1.4c2.5,0.1,3.8,1.7,3.8,3.5c0,2.9-2.6,4-7.5,4.4v0.2
	c0,1.5,0.6,3.2,3.1,3.2c1.2,0,2.3-0.3,3.3-1c-0.1,0.6-0.1,1.1-0.1,1.7c-1.1,0.5-2.4,0.7-3.6,0.7c-3.3,0-4.4-2.1-4.4-4.6v-2.3
	C141.6,17.3,141.6,16.8,141.7,15.3z M143.3,18.2c3.3-0.3,5.8-0.9,5.8-3c0.1-1.3-0.9-2.3-2.1-2.4c-0.1,0-0.2,0-0.2,0
	c-1.8,0-2.7,0.5-3.3,1.9c-0.1,0.2-0.1,0.5-0.1,0.8L143.3,18.2z"/>
<path class="st1" d="M20.7,16.3h11.7v1.8H20.7V16.3z"/>
<path class="st2" d="M16.4,11.6c-3.2,0-5.8,2.5-5.8,5.7c0,0,0,0.1,0,0.1c-0.1,3.1,2.3,5.7,5.4,5.8c0.1,0,0.3,0,0.4,0
	c3.2,0.1,5.8-2.5,5.8-5.6c0-0.1,0-0.1,0-0.2C22.2,14.2,19.6,11.6,16.4,11.6C16.4,11.6,16.4,11.6,16.4,11.6z M16.3,21.9
	c-2.3,0-4.2-1.9-4.2-4.2c0-0.1,0-0.2,0-0.3c-0.2-2.3,1.6-4.3,3.8-4.4c0.1,0,0.2,0,0.4,0c2.4,0,4.3,2,4.3,4.3c0,0,0,0.1,0,0.1
	c0.1,2.4-1.7,4.4-4.1,4.5C16.4,21.9,16.3,21.9,16.3,21.9z"/>
<path class="st1" d="M0.9,16.4h10.9v1.8H0.9V16.4z"/>
<path class="st1" d="M15.4,12.5V1.7h1.8v10.9H15.4z"/>
<path class="st1" d="M15.5,32.9V22.7h1.8v10.2H15.5z"/>
<rect x="22.7" y="1.7" class="st3" width="13.2" height="11.2"/>
<rect x="22.7" y="21.9" class="st3" width="13.2" height="11.2"/>
<rect x="35.8" y="11.4" class="st3" width="12.2" height="12.2"/>
</svg>
