<svg xmlns="http://www.w3.org/2000/svg" xmlns:xlink="http://www.w3.org/1999/xlink" viewBox="0 0 781 705"><defs><style>.cls-1,.cls-2,.cls-30,.cls-31,.cls-32{fill:none;}.cls-2{clip-path:url(#clip-path);}.cls-3{clip-path:url(#clip-path-3);}.cls-4{clip-path:url(#clip-path-4);}.cls-5{fill:#feb236;}.cls-6{fill:url(#radial-gradient);}.cls-16,.cls-7{fill:gray;}.cls-8{fill:#666;}.cls-17,.cls-9{fill:#333;}.cls-10{fill:#b58bd3;}.cls-11{fill:#9559c0;}.cls-12{fill:#d79d81;}.cls-13{fill:#b7816c;}.cls-14{fill:#b3b3b3;}.cls-15{fill:#ccc;}.cls-16{stroke:gray;}.cls-16,.cls-17,.cls-21,.cls-22,.cls-25,.cls-31,.cls-33{stroke-miterlimit:10;}.cls-17{stroke:#333;}.cls-18{fill:#e6e6e6;}.cls-19,.cls-21,.cls-27{fill:#ffebe6;}.cls-20,.cls-22,.cls-26{fill:#ecbfb3;}.cls-21,.cls-27{stroke:#ffebe6;}.cls-22,.cls-26{stroke:#ecbfb3;}.cls-23{fill:#bd6e61;}.cls-24{fill:#a43d26;}.cls-25,.cls-31,.cls-32,.cls-33{stroke:#000;}.cls-25,.cls-30,.cls-31,.cls-33{stroke-width:1.93px;}.cls-26,.cls-27,.cls-30,.cls-32{stroke-linecap:round;stroke-linejoin:round;}.cls-26,.cls-27{stroke-width:0.5px;}.cls-28{fill:#fff;}.cls-29{fill:#29abe2;}.cls-30{stroke:#d64161;}.cls-32{stroke-width:2.68px;}.cls-33{fill:#0071bc;opacity:0.14;}.cls-34{fill:#97938b;}</style><clipPath id="clip-path"><rect class="cls-1" x="-523" y="-448" width="2068" height="1453"/></clipPath><clipPath id="clip-path-3"><rect class="cls-1" x="79" width="702" height="646"/></clipPath><clipPath id="clip-path-4"><circle class="cls-2" cx="556.31" cy="164.29" r="327.63" transform="translate(46.77 441.49) rotate(-45)"/></clipPath><radialGradient id="radial-gradient" cx="489" cy="206.38" r="254" gradientTransform="translate(289.16 -285.33) rotate(45)" gradientUnits="userSpaceOnUse"><stop offset="0" stop-color="#fff"/><stop offset="0.51" stop-color="#fff5e7"/><stop offset="1" stop-color="#feb236"/></radialGradient></defs><title>Artboard 1</title><g id="Layer_2" data-name="Layer 2"><g class="cls-3"><g class="cls-4"><rect class="cls-5" x="123" y="-192" width="835" height="795"/><circle class="cls-6" cx="489" cy="206.38" r="254" transform="translate(-2.71 406.22) rotate(-45)"/><path class="cls-7" d="M530.57,405s5.31-16,13.18-16,20.94-.56,30.09,4.22a21.91,21.91,0,0,1,11.13,13Z"/><path class="cls-8" d="M567.75,404.54s5.5-.54,6-3.29-1.25-3.49-3-5.12-1.5-2.4-5.25.36-7.73,5.6-7.73,5.6l3.06-9.28s9.11-4.22,12.94-2.36,7,5.8,9.22,8.8a11.6,11.6,0,0,1,2,7"/><path class="cls-8" d="M537.25,395.5s1.25,2,3.25,1.5,4.08,1.79,4.08,1.79-2.58,2.42,2-1.18a55.78,55.78,0,0,0,8.5-8.63l-7.37-.69Z"/><path class="cls-9" d="M735.72,444l-6-9.95L599,426l-11.82,21.22C552.13,451.36,487.68,459.43,460,466c-39,9.24-31,39-31,39l-1,186h17.36c-.23.65-.36,1-.36,1h9.55s11.95-17.75,25.78-62.75S486,533.5,483.5,525.5c-.79-2.52-1.39-4.7-1.85-6.49q.12-3.13.22-5.84L508,516s.47-6.62,1.17-13.37l1.33.13,2.6,176.74,20,1c-.08,4.71-.13,7.51-.13,7.51h13.62s9.38-69.5,12.88-89,3.68-56.4,3.68-56.4S603,539.51,624,542s82.49-2.49,101-22.74S735.72,444,735.72,444Z"/><path class="cls-10" d="M576,219.5S561.33,251,559.17,268s-8.09,61-8.09,61S480.5,362,475,364c-11.75,4.25-5,4.75-2.5,10.75s-4.21,16,4.75,14.25c8.09-1.58,91.87-32,91.87-32s11.8-2.44,11.13-14c-1-17.25,2.25.25,7.25,6.75s14.39,11.75,14.39,24.5c0,7.9-15,73.49-15,73.49S606.39,443,638,452.47c32.69,9.82,87.25-2.47,91.25-7S714,426.25,712,417.75c-7.07-30-14.18-6.51-16.75-41.5,0,0,32.75-3,32.25-18.5S713,244.5,709,233s-16.57-24-34.79-31S576,219.5,576,219.5Z"/><path class="cls-11" d="M686.25,326.5a132.77,132.77,0,0,0,1.5,14c1,5,2.25,13.25,2.25,13.25s-3.75,1.25-20,4.5-38,9.25-39.25,10.5a12,12,0,0,1-2.75,2l-27,10.83a33.76,33.76,0,0,0,0-13.82,23.41,23.41,0,0,0-8.44-12.54s21.11,3.69,34.71,1.78,44.32-9.08,47.62-12.31C684,335.75,686.25,326.5,686.25,326.5Z"/><path class="cls-11" d="M634,382.75s-2.25,6.25,2,6.25,54-3.12,54-3.12,7.75,19.37,9,25.87,4.22,35.87,4.22,35.87,24.53.38,29-2.12,6.5-1,4-6-11-30.75-14.5-41.75-4.25-16.17-4.25-16.17,10-.33,11.25-4.08,3.25-39-2.25-67.75S713,252,713,252s5.54,64,2.79,85.24,1.75,26-7.75,30.5-33.25,13.66-45.25,13.83S634,382.75,634,382.75Z"/><path class="cls-11" d="M580,291.75s3.77,9.57,2.85,13c-5.52,20.42.26,39.33-3.77,48.25-1.92,4.26-87,32.8-96.74,34.55S470,390.25,470.25,389s-1.84.53.25-1.25,2.34-6.17,2.34-6.17S565.75,355,569.75,346,580,291.75,580,291.75Z"/><polygon class="cls-12" points="428.77 480.07 458.5 573.67 480.33 568 449.12 472.74 428.77 480.07"/><polygon class="cls-12" points="400 489.66 380.36 499.67 382.25 608.33 400 610.67 400 489.66"/><polygon class="cls-12" points="338.82 520.82 307.33 618.33 287 613.67 316.57 523.2 338.82 520.82"/><polygon class="cls-13" points="311.33 536.67 358 416.67 429.31 414.58 453.33 485.13 432.67 492.67 409.56 418 400.67 418.67 400 504 380 512 382.67 419.33 375 418.67 335.33 530.67 311.33 536.67"/><path class="cls-14" d="M430,403c0-3.3-5.48-6-12.17-6H272.17c-6.69,0-12.17,2.7-12.17,6s5.48,6,12.17,6H417.83C424.52,409,430,406.3,430,403Z"/><polygon class="cls-15" points="242.5 353 501.07 361 467.59 177.58 208.5 169.79 242.5 353"/><polygon class="cls-14" points="364.17 356.76 341.5 292.67 370.67 261.67 424.12 358.62 364.17 356.76"/><path class="cls-16" d="M426.5,404.5H323s-25,2.33-19-29,22-106.83,22-106.83.17-9,11.67-8.84l33.66-.9.17,2.74L363,266,339.33,386.12l10.25,13.21,76.92,2.17Z"/><path class="cls-17" d="M435,400.5H362s-25,2.33-19-29,20.75-99.17,20.75-99.17,1.75-8.5,7.75-8.5v-4c-11-.16-11.58,8.84-11.58,8.84s-16,73.5-22,104.83,18,29,18,29h71"/><polygon class="cls-14" points="500.07 361.17 511.1 354.89 476 168 466.59 177.66 500.07 361.17"/><polygon class="cls-18" points="208.5 170.29 216.5 163 476 168 466.59 177.66 208.5 170.29"/><rect class="cls-12" x="215" y="405" width="406" height="19"/><path class="cls-19" d="M631.88,369.12a92.16,92.16,0,0,0,.74,9.26c.5,2.5,1.38,5.74,1.38,5.74l-37,8.76s-7.75,1.5-13.38.62-12.62-5-15.24-3.75-5.76,7.5-6.63,9-3.63,5.37-6.13,4.13,1.38-10.5,3.63-13.13S565,382,570,382s7.62-.25,7.62-.25-17.74-1.13-20.24-.63-3.63,3.26-5.38,6.5a95.67,95.67,0,0,1-6.38,10.26c-1.37,1.74-3.5,1.74-4-.76s2.13-8.12,2.13-8.12-3.37,7.5-5.75,7.12-2.38-2.12-1.62-4.12,7.24-13.38,8.62-15,4.5-5.12,9.75-5.38,20.87.38,28.87,1.76,17.88,3.5,22.88,2.87S631.88,369.12,631.88,369.12Z"/><path class="cls-20" d="M625.25,383.88c-3.25,0-7.75.62-10.75,2.24s-5.45,4.1-12.07,5.47-8.66,1.22-13.66.59c-1.39-.17-3.66-1.53-11.52-2.18-3-.25-10.25-1-11.37.5a17.8,17.8,0,0,0-2.13,3.25c-.63,1.25-2.58,5.45-4.25,7.37-.59.69-4.38,2-4.38,2s3.88,1.13,6.5-3.74c1.34-2.48,4.37-7.21,4.37-7.21s4.26-1.79,10.63.21c4,1.24,10.5,2.5,11.13,3.12s10.87,2.62,14.13,1.38,6.59-3.62,10.12-6S636,389,636,389l-2.45-6.61Z"/><path class="cls-20" d="M579.75,381.25l-12.27,1.19s-9.36-.68-10.36,0-3.73,4.19-5.5,6.56-5,7.49-5,7.49S552.38,386.13,553,385c1.72-3.14,3.14-5,4.89-4.91s5.84,1,8.59,1.07,13.27-.41,13.27-.41"/><path class="cls-21" d="M469,369.66s3.81,4,4,6.59a34.52,34.52,0,0,1-.46,7.71,48,48,0,0,1-2.21,4.73s-20.67,3.36-22.75,4.53-15.25,10.45-15.25,10.45L423,403.5s5.67-4.5,7.5-5.25,1.58-4.46.92-6-5.84-3.89-7.59-4.31-13.41-.41-16.5,1-10.41,10.51-10.41,10.51l-8.92.25s5.08-5.17,7.33-7.92l3.67-4.5s-5.33-.25-6.75,1.09-10.33,4.83-11.08,2.33.91-3.92,3.41-4.92,8.5-3.75,9.84-4.33,6.08-3.75,9.75-3.5,11.91-.91,13.41-1.75,5.5-2.5,8.09-2.5,10.58,1.5,17.5.67S469,369.66,469,369.66Z"/><path class="cls-22" d="M402,399.5h5a30.84,30.84,0,0,1,1.67-3.75c.66-1.08,5.08-5.08,6-4.67s.16,1.92-.42,3.17-1.83,5.33-1.83,5.33l.75,4.92H415l2.33-1.83a28.15,28.15,0,0,1,1.09-6.09c.83-2.33,6.16-7.58,6.16-7.58a23.7,23.7,0,0,0-9.57-1.14c-5.22.5-9.18,2.81-9.84,3.72S402,399.5,402,399.5Z"/><path class="cls-22" d="M430.5,403.5s11.5-9.44,14.75-10.69,13.83-4.23,17.08-5.48,10.35-4.56,10.35-4.56l-2.43,5.92S451.58,393,449,394.25s-14.75,9.42-14.75,9.42Z"/><path class="cls-23" d="M519,113l-2.63-9.5s-3.7,58.17,2.63,69.5,12,16,11.17,31.33-2.35,18.17-5.34,30.17c-1.75,7.05-3.83,12.87-3.83,12.87s-4.63,8.25,9.25,6.46c6.31-.81,15.5-3.88,15.5-3.88l17.08-34.29Z"/><path class="cls-24" d="M516.83,116s1.34,32.5,4.67,42.67,13.67,31.29,19.5,40,7.83,15,6.5,25.63S538.22,252,538.22,252s21.78-5.84,30.28-11.18,36.33-30.33,36.33-30.33Z"/><polygon class="cls-25" points="512.63 158.34 536.25 138.13 513.54 160.5 512.63 158.34"/><path class="cls-26" d="M624.5,167.5s5,10.25,7.25,13.5,6,7.5,6,7.5S616.5,196,609.5,200.75s-17.25,13.5-17.25,13.5l-1.75-8.75Z"/><path class="cls-27" d="M605.5,240s-7-7.75-9.75-13-4.15-16-4.15-16l41.9-27.63,4.25,5.13S640,204.81,631,215.66,605.5,240,605.5,240Z"/><path class="cls-27" d="M621.67,117S604.36,63.41,557,79.33c-38.67,13-40.33,25.67-40.33,25.67,1.45,25.93,1.46,25.4,2.82,36.41.77,6.18,7.66,15.59,8.33,20.92s1,10.84,8,21.84S546.83,196,552.5,201s8.83,8.33,13.17,11.33,9.33,5.67,19.33,0,26.67-18.66,32-26.33,8.67-11.33,11.33-21S633,143,633,143s8.33,4.33,12.33-3.67,8.34-41-8-38S621.67,117,621.67,117Z"/><path class="cls-20" d="M549.22,175.72s2.38,4.29,6.1,4.54,7.2-2.37,7.2-2.37l3.51-1c3.51-1,1.91-4.38,1.91-4.38s2.48,2.62.23,5c-2.86,3.11-11,5.41-14.32,5.22S549.22,175.72,549.22,175.72Z"/><rect class="cls-28" x="564" y="135" width="28" height="15"/><ellipse class="cls-29" cx="575.99" cy="142.39" rx="7.61" ry="8.09"/><path d="M580.2,142.64c0,3.19-2.09,5.77-4.67,5.77s-4.67-2.58-4.67-5.77,2.09-5.78,4.67-5.78S580.2,139.45,580.2,142.64Z"/><path class="cls-1" d="M591.94,137.83s-6.81-4.15-16.49-1.19-10.27,5.74-11,7.92,1.28,5.53,5.58,5.73,11.51-1.78,15.09-4.55S591.94,137.83,591.94,137.83Z"/><path class="cls-28" d="M582.14,140c0,1.19-1.29,2.16-2.87,2.16s-2.87-1-2.87-2.16,1.28-2.17,2.87-2.17S582.14,138.77,582.14,140Z"/><rect class="cls-28" x="531.01" y="140" width="15" height="25" transform="translate(371.22 686.6) rotate(-88.42)"/><path class="cls-29" d="M543.52,152.17c.11,4.46-2.84,8.16-6.58,8.25s-6.87-3.45-7-7.91,2.83-8.16,6.58-8.26S543.41,147.7,543.52,152.17Z"/><path d="M540.48,152.47c.08,3.19-1.72,5.82-4,5.88s-4.22-2.48-4.3-5.67,1.72-5.83,4-5.88S540.4,149.28,540.48,152.47Z"/><path class="cls-1" d="M551.08,148.17s-6-4.32-14.66-1.59-8.69,5.16-8.59,7.42c.11,2.43,1,5.81,4.84,6.11s8.88-1.52,12.15-4.2S551.08,148.17,551.08,148.17Z"/><path class="cls-28" d="M542.17,149.09a2.59,2.59,0,1,1-2.49-2.23A2.37,2.37,0,0,1,542.17,149.09Z"/><path class="cls-30" d="M557,195.67s15.42-.29,22.27-4.79,10-9.89,10.69-11.73.76-3,2-2l1.23,1"/><path class="cls-24" d="M560,138.34s-3.57-2.5-3.56-4,12.62-4.56,19-5.12a40.49,40.49,0,0,1,18.11,2.85s-15,.58-19.71,1.17S560,138.34,560,138.34Z"/><path class="cls-24" d="M544.63,142s1.37-3.81.56-4.83-12.1,3.95-17.24,7.17A40.58,40.58,0,0,0,515.7,156.7s11.79-8.16,15.67-10.4S544.63,142,544.63,142Z"/><path class="cls-31" d="M561.6,146.78s-1.86-3.47,1.4-5.16c4.43-2.29,10.48-4.94,21.38-7.68,14.16-3.56,13.5-.06,13.5-.06s2.24,8.56-1.5,11.8-21.36,7.78-25.72,7.79C565,153.49,561.6,146.78,561.6,146.78Z"/><path class="cls-31" d="M549.1,149s-.39-3.91-4-3.51c-5,.55-11.47,1.71-22,5.49-13.76,4.91-11.26,7.45-11.26,7.45s2.89,8.36,7.8,9,22.09-5.39,25.71-7.8C550,156.47,549.1,149,549.1,149Z"/><path class="cls-32" d="M549.88,149.26a5.53,5.53,0,0,1,3.77-3.3c4.87-1.19,7.33,1.13,7.33,1.13"/><polygon class="cls-25" points="597.63 132.34 621.25 112.13 598.54 134.5 597.63 132.34"/><path class="cls-33" d="M561.6,146.78s-1.86-3.47,1.4-5.16c4.43-2.29,10.48-4.94,21.38-7.68,14.16-3.56,13.5-.06,13.5-.06s2.24,8.56-1.5,11.8-21.36,7.78-25.72,7.79C565,153.49,561.6,146.78,561.6,146.78Z"/><path class="cls-33" d="M549.1,149s-.39-3.91-4-3.51c-5,.55-11.47,1.71-22,5.49-13.76,4.91-11.26,7.45-11.26,7.45s2.89,8.36,7.8,9,22.09-5.39,25.71-7.8C550,156.47,549.1,149,549.1,149Z"/><path class="cls-23" d="M516.37,108.5s-3.3-6.93,1.88-20.25c5-12.75,29.94-32.89,49.5-35.75,20.52-3,32.75,3.5,32.75,3.5s24.75,3.25,37.5,21c16.77,23.35,20.75,57.06,24.75,89.56S669,210,665,219.25s-13.25,25.5-23.75,27.5-33.75,5.75-30-1.75,7.25-17.5,8.75-39.75-6-105-21.46-113.92c-10.3-6-13.81-11.56-41.54-4.58C537.53,91.65,516.37,108.5,516.37,108.5Z"/><path class="cls-23" d="M659,136.34s5.81,24.41,10.27,33.91S683.88,208,683.88,208s-5.84-1.51-12.44-2.5S659,203.75,659,203.75Z"/><path class="cls-24" d="M661.67,175s1.19,13.83,1.9,16.94,3.89,13.13,3.89,13.13l6.75.85s-5.62-11-8.81-18A44.07,44.07,0,0,1,661.67,175Z"/><path class="cls-24" d="M543.28,90.82c16.46-5.8,17.63-6.64,25.41-7.46,6-.63,13.17-1,16.84,0s15.35,7.76,19.3,17.26c8.53,20.46,14.3,63.52,14.3,63.52s-2.63-36.83-5-47.26c-7.08-31.13-22.18-36.5-22.18-36.5s4.44-4.9,5.68-9.26a77.36,77.36,0,0,0,1.76-11.87s-1.27,12-7.44,16.75S576,78.25,566.75,80.38,543.28,90.82,543.28,90.82Z"/></g><rect class="cls-34" x="344.5" y="-423.5" width="422" height="1105" transform="translate(81.85 446.61) rotate(-46.92)"/><g class="cls-4"><rect class="cls-5" x="123" y="-192" width="835" height="795"/><circle class="cls-6" cx="489" cy="206.38" r="254" transform="translate(-2.71 406.22) rotate(-45)"/><path class="cls-7" d="M530.57,405s5.31-16,13.18-16,20.94-.56,30.09,4.22a21.91,21.91,0,0,1,11.13,13Z"/><path class="cls-8" d="M567.75,404.54s5.5-.54,6-3.29-1.25-3.49-3-5.12-1.5-2.4-5.25.36-7.73,5.6-7.73,5.6l3.06-9.28s9.11-4.22,12.94-2.36,7,5.8,9.22,8.8a11.6,11.6,0,0,1,2,7"/><path class="cls-8" d="M537.25,395.5s1.25,2,3.25,1.5,4.08,1.79,4.08,1.79-2.58,2.42,2-1.18a55.78,55.78,0,0,0,8.5-8.63l-7.37-.69Z"/><path class="cls-9" d="M735.72,444l-6-9.95L599,426l-11.82,21.22C552.13,451.36,487.68,459.43,460,466c-39,9.24-31,39-31,39l-1,186h17.36c-.23.65-.36,1-.36,1h9.55s11.95-17.75,25.78-62.75S486,533.5,483.5,525.5c-.79-2.52-1.39-4.7-1.85-6.49q.12-3.13.22-5.84L508,516s.47-6.62,1.17-13.37l1.33.13,2.6,176.74,20,1c-.08,4.71-.13,7.51-.13,7.51h13.62s9.38-69.5,12.88-89,3.68-56.4,3.68-56.4S603,539.51,624,542s82.49-2.49,101-22.74S735.72,444,735.72,444Z"/><path class="cls-10" d="M576,219.5S561.33,251,559.17,268s-8.09,61-8.09,61S480.5,362,475,364c-11.75,4.25-5,4.75-2.5,10.75s-4.21,16,4.75,14.25c8.09-1.58,91.87-32,91.87-32s11.8-2.44,11.13-14c-1-17.25,2.25.25,7.25,6.75s14.39,11.75,14.39,24.5c0,7.9-15,73.49-15,73.49S606.39,443,638,452.47c32.69,9.82,87.25-2.47,91.25-7S714,426.25,712,417.75c-7.07-30-14.18-6.51-16.75-41.5,0,0,32.75-3,32.25-18.5S713,244.5,709,233s-16.57-24-34.79-31S576,219.5,576,219.5Z"/><path class="cls-11" d="M686.25,326.5a132.77,132.77,0,0,0,1.5,14c1,5,2.25,13.25,2.25,13.25s-3.75,1.25-20,4.5-38,9.25-39.25,10.5a12,12,0,0,1-2.75,2l-27,10.83a33.76,33.76,0,0,0,0-13.82,23.41,23.41,0,0,0-8.44-12.54s21.11,3.69,34.71,1.78,44.32-9.08,47.62-12.31C684,335.75,686.25,326.5,686.25,326.5Z"/><path class="cls-11" d="M634,382.75s-2.25,6.25,2,6.25,54-3.12,54-3.12,7.75,19.37,9,25.87,4.22,35.87,4.22,35.87,24.53.38,29-2.12,6.5-1,4-6-11-30.75-14.5-41.75-4.25-16.17-4.25-16.17,10-.33,11.25-4.08,3.25-39-2.25-67.75S713,252,713,252s5.54,64,2.79,85.24,1.75,26-7.75,30.5-33.25,13.66-45.25,13.83S634,382.75,634,382.75Z"/><path class="cls-11" d="M580,291.75s3.77,9.57,2.85,13c-5.52,20.42.26,39.33-3.77,48.25-1.92,4.26-87,32.8-96.74,34.55S470,390.25,470.25,389s-1.84.53.25-1.25,2.34-6.17,2.34-6.17S565.75,355,569.75,346,580,291.75,580,291.75Z"/><polygon class="cls-12" points="428.77 480.07 458.5 573.67 480.33 568 449.12 472.74 428.77 480.07"/><polygon class="cls-12" points="400 489.66 380.36 499.67 382.25 608.33 400 610.67 400 489.66"/><polygon class="cls-12" points="338.82 520.82 307.33 618.33 287 613.67 316.57 523.2 338.82 520.82"/><polygon class="cls-13" points="311.33 536.67 358 416.67 429.31 414.58 453.33 485.13 432.67 492.67 409.56 418 400.67 418.67 400 504 380 512 382.67 419.33 375 418.67 335.33 530.67 311.33 536.67"/><path class="cls-14" d="M430,403c0-3.3-5.48-6-12.17-6H272.17c-6.69,0-12.17,2.7-12.17,6s5.48,6,12.17,6H417.83C424.52,409,430,406.3,430,403Z"/><polygon class="cls-15" points="242.5 353 501.07 361 467.59 177.58 208.5 169.79 242.5 353"/><polygon class="cls-14" points="364.17 356.76 341.5 292.67 370.67 261.67 424.12 358.62 364.17 356.76"/><path class="cls-16" d="M426.5,404.5H323s-25,2.33-19-29,22-106.83,22-106.83.17-9,11.67-8.84l33.66-.9.17,2.74L363,266,339.33,386.12l10.25,13.21,76.92,2.17Z"/><path class="cls-17" d="M435,400.5H362s-25,2.33-19-29,20.75-99.17,20.75-99.17,1.75-8.5,7.75-8.5v-4c-11-.16-11.58,8.84-11.58,8.84s-16,73.5-22,104.83,18,29,18,29h71"/><polygon class="cls-14" points="500.07 361.17 511.1 354.89 476 168 466.59 177.66 500.07 361.17"/><polygon class="cls-18" points="208.5 170.29 216.5 163 476 168 466.59 177.66 208.5 170.29"/><rect class="cls-12" x="215" y="405" width="406" height="19"/><path class="cls-19" d="M631.88,369.12a92.16,92.16,0,0,0,.74,9.26c.5,2.5,1.38,5.74,1.38,5.74l-37,8.76s-7.75,1.5-13.38.62-12.62-5-15.24-3.75-5.76,7.5-6.63,9-3.63,5.37-6.13,4.13,1.38-10.5,3.63-13.13S565,382,570,382s7.62-.25,7.62-.25-17.74-1.13-20.24-.63-3.63,3.26-5.38,6.5a95.67,95.67,0,0,1-6.38,10.26c-1.37,1.74-3.5,1.74-4-.76s2.13-8.12,2.13-8.12-3.37,7.5-5.75,7.12-2.38-2.12-1.62-4.12,7.24-13.38,8.62-15,4.5-5.12,9.75-5.38,20.87.38,28.87,1.76,17.88,3.5,22.88,2.87S631.88,369.12,631.88,369.12Z"/><path class="cls-20" d="M625.25,383.88c-3.25,0-7.75.62-10.75,2.24s-5.45,4.1-12.07,5.47-8.66,1.22-13.66.59c-1.39-.17-3.66-1.53-11.52-2.18-3-.25-10.25-1-11.37.5a17.8,17.8,0,0,0-2.13,3.25c-.63,1.25-2.58,5.45-4.25,7.37-.59.69-4.38,2-4.38,2s3.88,1.13,6.5-3.74c1.34-2.48,4.37-7.21,4.37-7.21s4.26-1.79,10.63.21c4,1.24,10.5,2.5,11.13,3.12s10.87,2.62,14.13,1.38,6.59-3.62,10.12-6S636,389,636,389l-2.45-6.61Z"/><path class="cls-20" d="M579.75,381.25l-12.27,1.19s-9.36-.68-10.36,0-3.73,4.19-5.5,6.56-5,7.49-5,7.49S552.38,386.13,553,385c1.72-3.14,3.14-5,4.89-4.91s5.84,1,8.59,1.07,13.27-.41,13.27-.41"/><path class="cls-21" d="M469,369.66s3.81,4,4,6.59a34.52,34.52,0,0,1-.46,7.71,48,48,0,0,1-2.21,4.73s-20.67,3.36-22.75,4.53-15.25,10.45-15.25,10.45L423,403.5s5.67-4.5,7.5-5.25,1.58-4.46.92-6-5.84-3.89-7.59-4.31-13.41-.41-16.5,1-10.41,10.51-10.41,10.51l-8.92.25s5.08-5.17,7.33-7.92l3.67-4.5s-5.33-.25-6.75,1.09-10.33,4.83-11.08,2.33.91-3.92,3.41-4.92,8.5-3.75,9.84-4.33,6.08-3.75,9.75-3.5,11.91-.91,13.41-1.75,5.5-2.5,8.09-2.5,10.58,1.5,17.5.67S469,369.66,469,369.66Z"/><path class="cls-22" d="M402,399.5h5a30.84,30.84,0,0,1,1.67-3.75c.66-1.08,5.08-5.08,6-4.67s.16,1.92-.42,3.17-1.83,5.33-1.83,5.33l.75,4.92H415l2.33-1.83a28.15,28.15,0,0,1,1.09-6.09c.83-2.33,6.16-7.58,6.16-7.58a23.7,23.7,0,0,0-9.57-1.14c-5.22.5-9.18,2.81-9.84,3.72S402,399.5,402,399.5Z"/><path class="cls-22" d="M430.5,403.5s11.5-9.44,14.75-10.69,13.83-4.23,17.08-5.48,10.35-4.56,10.35-4.56l-2.43,5.92S451.58,393,449,394.25s-14.75,9.42-14.75,9.42Z"/><path class="cls-23" d="M519,113l-2.63-9.5s-3.7,58.17,2.63,69.5,12,16,11.17,31.33-2.35,18.17-5.34,30.17c-1.75,7.05-3.83,12.87-3.83,12.87s-4.63,8.25,9.25,6.46c6.31-.81,15.5-3.88,15.5-3.88l17.08-34.29Z"/><path class="cls-24" d="M516.83,116s1.34,32.5,4.67,42.67,13.67,31.29,19.5,40,7.83,15,6.5,25.63S538.22,252,538.22,252s21.78-5.84,30.28-11.18,36.33-30.33,36.33-30.33Z"/><polygon class="cls-25" points="512.63 158.34 536.25 138.13 513.54 160.5 512.63 158.34"/><path class="cls-26" d="M624.5,167.5s5,10.25,7.25,13.5,6,7.5,6,7.5S616.5,196,609.5,200.75s-17.25,13.5-17.25,13.5l-1.75-8.75Z"/><path class="cls-27" d="M605.5,240s-7-7.75-9.75-13-4.15-16-4.15-16l41.9-27.63,4.25,5.13S640,204.81,631,215.66,605.5,240,605.5,240Z"/><path class="cls-27" d="M621.67,117S604.36,63.41,557,79.33c-38.67,13-40.33,25.67-40.33,25.67,1.45,25.93,1.46,25.4,2.82,36.41.77,6.18,7.66,15.59,8.33,20.92s1,10.84,8,21.84S546.83,196,552.5,201s8.83,8.33,13.17,11.33,9.33,5.67,19.33,0,26.67-18.66,32-26.33,8.67-11.33,11.33-21S633,143,633,143s8.33,4.33,12.33-3.67,8.34-41-8-38S621.67,117,621.67,117Z"/><path class="cls-20" d="M549.22,175.72s2.38,4.29,6.1,4.54,7.2-2.37,7.2-2.37l3.51-1c3.51-1,1.91-4.38,1.91-4.38s2.48,2.62.23,5c-2.86,3.11-11,5.41-14.32,5.22S549.22,175.72,549.22,175.72Z"/><rect class="cls-28" x="564" y="135" width="28" height="15"/><ellipse class="cls-29" cx="575.99" cy="142.39" rx="7.61" ry="8.09"/><path d="M580.2,142.64c0,3.19-2.09,5.77-4.67,5.77s-4.67-2.58-4.67-5.77,2.09-5.78,4.67-5.78S580.2,139.45,580.2,142.64Z"/><path class="cls-1" d="M591.94,137.83s-6.81-4.15-16.49-1.19-10.27,5.74-11,7.92,1.28,5.53,5.58,5.73,11.51-1.78,15.09-4.55S591.94,137.83,591.94,137.83Z"/><path class="cls-28" d="M582.14,140c0,1.19-1.29,2.16-2.87,2.16s-2.87-1-2.87-2.16,1.28-2.17,2.87-2.17S582.14,138.77,582.14,140Z"/><rect class="cls-28" x="531.01" y="140" width="15" height="25" transform="translate(371.22 686.6) rotate(-88.42)"/><path class="cls-29" d="M543.52,152.17c.11,4.46-2.84,8.16-6.58,8.25s-6.87-3.45-7-7.91,2.83-8.16,6.58-8.26S543.41,147.7,543.52,152.17Z"/><path d="M540.48,152.47c.08,3.19-1.72,5.82-4,5.88s-4.22-2.48-4.3-5.67,1.72-5.83,4-5.88S540.4,149.28,540.48,152.47Z"/><path class="cls-1" d="M551.08,148.17s-6-4.32-14.66-1.59-8.69,5.16-8.59,7.42c.11,2.43,1,5.81,4.84,6.11s8.88-1.52,12.15-4.2S551.08,148.17,551.08,148.17Z"/><path class="cls-28" d="M542.17,149.09a2.59,2.59,0,1,1-2.49-2.23A2.37,2.37,0,0,1,542.17,149.09Z"/><path class="cls-30" d="M557,195.67s15.42-.29,22.27-4.79,10-9.89,10.69-11.73.76-3,2-2l1.23,1"/><path class="cls-24" d="M560,138.34s-3.57-2.5-3.56-4,12.62-4.56,19-5.12a40.49,40.49,0,0,1,18.11,2.85s-15,.58-19.71,1.17S560,138.34,560,138.34Z"/><path class="cls-24" d="M544.63,142s1.37-3.81.56-4.83-12.1,3.95-17.24,7.17A40.58,40.58,0,0,0,515.7,156.7s11.79-8.16,15.67-10.4S544.63,142,544.63,142Z"/><path class="cls-31" d="M561.6,146.78s-1.86-3.47,1.4-5.16c4.43-2.29,10.48-4.94,21.38-7.68,14.16-3.56,13.5-.06,13.5-.06s2.24,8.56-1.5,11.8-21.36,7.78-25.72,7.79C565,153.49,561.6,146.78,561.6,146.78Z"/><path class="cls-31" d="M549.1,149s-.39-3.91-4-3.51c-5,.55-11.47,1.71-22,5.49-13.76,4.91-11.26,7.45-11.26,7.45s2.89,8.36,7.8,9,22.09-5.39,25.71-7.8C550,156.47,549.1,149,549.1,149Z"/><path class="cls-32" d="M549.88,149.26a5.53,5.53,0,0,1,3.77-3.3c4.87-1.19,7.33,1.13,7.33,1.13"/><polygon class="cls-25" points="597.63 132.34 621.25 112.13 598.54 134.5 597.63 132.34"/><path class="cls-33" d="M561.6,146.78s-1.86-3.47,1.4-5.16c4.43-2.29,10.48-4.94,21.38-7.68,14.16-3.56,13.5-.06,13.5-.06s2.24,8.56-1.5,11.8-21.36,7.78-25.72,7.79C565,153.49,561.6,146.78,561.6,146.78Z"/><path class="cls-33" d="M549.1,149s-.39-3.91-4-3.51c-5,.55-11.47,1.71-22,5.49-13.76,4.91-11.26,7.45-11.26,7.45s2.89,8.36,7.8,9,22.09-5.39,25.71-7.8C550,156.47,549.1,149,549.1,149Z"/><path class="cls-23" d="M516.37,108.5s-3.3-6.93,1.88-20.25c5-12.75,29.94-32.89,49.5-35.75,20.52-3,32.75,3.5,32.75,3.5s24.75,3.25,37.5,21c16.77,23.35,20.75,57.06,24.75,89.56S669,210,665,219.25s-13.25,25.5-23.75,27.5-33.75,5.75-30-1.75,7.25-17.5,8.75-39.75-6-105-21.46-113.92c-10.3-6-13.81-11.56-41.54-4.58C537.53,91.65,516.37,108.5,516.37,108.5Z"/><path class="cls-23" d="M659,136.34s5.81,24.41,10.27,33.91S683.88,208,683.88,208s-5.84-1.51-12.44-2.5S659,203.75,659,203.75Z"/><path class="cls-24" d="M661.67,175s1.19,13.83,1.9,16.94,3.89,13.13,3.89,13.13l6.75.85s-5.62-11-8.81-18A44.07,44.07,0,0,1,661.67,175Z"/><path class="cls-24" d="M543.28,90.82c16.46-5.8,17.63-6.64,25.41-7.46,6-.63,13.17-1,16.84,0s15.35,7.76,19.3,17.26c8.53,20.46,14.3,63.52,14.3,63.52s-2.63-36.83-5-47.26c-7.08-31.13-22.18-36.5-22.18-36.5s4.44-4.9,5.68-9.26a77.36,77.36,0,0,0,1.76-11.87s-1.27,12-7.44,16.75S576,78.25,566.75,80.38,543.28,90.82,543.28,90.82Z"/></g></g></g></svg>